# xmcd
#
# Track frame offsets:
#	150
#	17703
#	33148
#	49951
#	68094
#	82048
#	96057
#	113224
#	129053
#	145630
#	162583
#	179150
#	193850
#	211767
#	223170
#	237496
#	249722
#	267195
#
# Disc length: 3761 seconds
#
# Revision: 1
# Processed by: cddbd v1.5.2PL0 Copyright (c) Steve Scherf et al.
# Submitted via: audiograbber 1.83.01
#
DISCID=080eaf12
DTITLE=Various Artist - Promo Only Country Radio 2010 - 02
DYEAR=2010
DGENRE=Country
TTITLE0=Trace Adkins - Ala-Freakin-Bama
TTITLE1=Alan Jackson - It's Just That Way
TTITLE2=Blake Shelton feat. Trace Adkins - Hillbilly Bone (Album Version)
TTITLE3=Taylor Swift - Fearless
TTITLE4=Love and Theft - Dancing In Circles
TTITLE5=Danny Gokey - My Best Days Are Ahead Of Me
TTITLE6=Racal Flatts - Unstoppable
TTITLE7=Lady Antebellum - American Honey
TTITLE8=Colt Ford feat. Jamey Johsnon - Cold Beer
TTITLE9=Billy Currington - That's How Country Boys Roll
TTITLE10=Jessica Harp - A Woman Needs
TTITLE11=Burns and Poe - Don't Get No Better Than That
TTITLE12=Gary Allan - Today
TTITLE13=Cledus T. Judd - Tiger By The Tail (The Tale Of Tiger Woods)
TTITLE14=Gretchen WIlson - Work Hard, Play Harder
TTITLE15=Carters Chrod - You Knock Me Out
TTITLE16=Darryl Worley - Best Of Both Worlds
TTITLE17=The McClymonts - My Life Again
EXTD=
EXTT0=
EXTT1=
EXTT2=
EXTT3=
EXTT4=
EXTT5=
EXTT6=
EXTT7=
EXTT8=
EXTT9=
EXTT10=
EXTT11=
EXTT12=
EXTT13=
EXTT14=
EXTT15=
EXTT16=
EXTT17=
PLAYORDER=
